HIERARCHY
ROOT Pelvis
{
	OFFSET 0.000000 0.000000 0.000000
	CHANNELS 6 Xposition Yposition Zposition Xrotation Yrotation Zrotation
	JOINT LeftUpLeg_virtual
	{
		OFFSET 0.000000 0.000000 0.000000
		CHANNELS 3 Xrotation Yrotation Zrotation
		JOINT LeftUpLeg
		{
			OFFSET 18.735201 -5.666702 -4.541200
			CHANNELS 3 Xrotation Yrotation Zrotation
			JOINT LeftLeg
			{
				OFFSET -0.021200 -31.938179 0.493100
				CHANNELS 3 Xrotation Yrotation Zrotation
				JOINT LeftFoot
				{
					OFFSET 0.021200 -31.938179 -4.336299
					CHANNELS 3 Xrotation Yrotation Zrotation
					JOINT LeftToeBase
					{
						OFFSET 0.943001 -26.722000 15.023500
						CHANNELS 3 Xrotation Yrotation Zrotation
						End Site
						{
							OFFSET 0 0 0
						}
					}
				}
			}
		}
	}
	JOINT RightUpLeg_virtual
	{
		OFFSET 0.000000 0.000000 0.000000
		CHANNELS 3 Xrotation Yrotation Zrotation
		JOINT RightUpLeg
		{
			OFFSET -18.735201 -5.666702 -4.541200
			CHANNELS 3 Xrotation Yrotation Zrotation
			JOINT RightLeg
			{
				OFFSET 0.018946 -31.938133 0.493100
				CHANNELS 3 Xrotation Yrotation Zrotation
				JOINT RightFoot
				{
					OFFSET -0.018946 -31.938126 -4.336299
					CHANNELS 3 Xrotation Yrotation Zrotation
					JOINT RightToeBase
					{
						OFFSET -0.943001 -26.722004 15.023500
						CHANNELS 3 Xrotation Yrotation Zrotation
						End Site
						{
							OFFSET 0 0 0
						}
					}
				}
			}
		}
	}
	JOINT Hips_virtual
	{
		OFFSET 0.000000 0.000000 0.000000
		CHANNELS 3 Xrotation Yrotation Zrotation
		JOINT Hips
		{
			OFFSET -0.000000 -0.000000 -0.000000
			CHANNELS 3 Xrotation Yrotation Zrotation
			JOINT Spine
			{
				OFFSET 0.000000 10.199997 -0.299500
				CHANNELS 3 Xrotation Yrotation Zrotation
				JOINT Spine1
				{
					OFFSET 0.000000 11.900002 -1.516600
					CHANNELS 3 Xrotation Yrotation Zrotation
					JOINT Spine2
					{
						OFFSET 0.000000 13.600006 -2.842500
						CHANNELS 3 Xrotation Yrotation Zrotation
						JOINT Neck_virtual
						{
							OFFSET 0.000000 0.000000 0.000000
							CHANNELS 3 Xrotation Yrotation Zrotation
							JOINT Neck
							{
								OFFSET 0.000000 9.624100 -2.890100
								CHANNELS 3 Xrotation Yrotation Zrotation
								JOINT Head
								{
									OFFSET 0.000000 14.068802 -1.351900
									CHANNELS 3 Xrotation Yrotation Zrotation
									End Site
									{
										OFFSET 0 0 0
									}
								}
							}
						}
						JOINT LeftShoulder_virtual
						{
							OFFSET 0.000000 0.000000 0.000000
							CHANNELS 3 Xrotation Yrotation Zrotation
							JOINT LeftShoulder
							{
								OFFSET 15.263000 10.923401 -0.547700
								CHANNELS 3 Xrotation Yrotation Zrotation
								JOINT LeftArm
								{
									OFFSET 25.438599 -2.830597 -13.032500
									CHANNELS 3 Xrotation Yrotation Zrotation
									JOINT LeftForeArm
									{
										OFFSET 29.960503 0.000000 0.000000
										CHANNELS 3 Xrotation Yrotation Zrotation
										JOINT LeftHand
										{
											OFFSET 27.849251 0.000000 0.000000
											CHANNELS 3 Xrotation Yrotation Zrotation
											End Site
											{
												OFFSET 0 0 0
											}
										}
									}
								}
							}
						}
						JOINT RightShoulder_virtual
						{
							OFFSET 0.000000 0.000000 0.000000
							CHANNELS 3 Xrotation Yrotation Zrotation
							JOINT RightShoulder
							{
								OFFSET -15.263000 10.923401 -0.547700
								CHANNELS 3 Xrotation Yrotation Zrotation
								JOINT RightArm
								{
									OFFSET -25.438599 -2.830597 -13.032500
									CHANNELS 3 Xrotation Yrotation Zrotation
									JOINT RightForeArm
									{
										OFFSET -29.960503 0.000000 0.000000
										CHANNELS 3 Xrotation Yrotation Zrotation
										JOINT RightHand
										{
											OFFSET -27.849251 0.000000 0.000000
											CHANNELS 3 Xrotation Yrotation Zrotation
											End Site
											{
												OFFSET 0 0 0
											}
										}
									}
								}
							}
						}
					}
				}
			}
		}
	}
}
MOTION
Frames: 10
Frame Time: 0.03333333
79.940590 96.764618 160.140381 0.000000 0.000000 0.000000 2.878283 42.992113 1.929779 -26.665994 -1.463016 -6.078535 23.277788 4.344232 -11.536384 36.000718 14.042187 -0.016541 0.000000 0.000000 0.000000 2.759954 43.416569 3.153304 -24.815278 4.058716 1.302791 42.270668 -2.369341 -10.480577 49.239735 -8.309884 0.079900 0.000000 0.000000 0.000000 2.766023 44.445486 2.923562 -0.787205 -0.157855 0.087273 4.207351 -2.619020 -1.460265 -3.463630 2.325672 -1.169087 0.000000 0.000000 0.000000 -7.252247 0.793546 1.376917 -1.171910 1.169952 0.806991 0.000000 0.000000 0.000000 -5.649182 0.799736 2.711782 -0.713386 2.543077 0.178946 15.167262 -22.338040 -61.099444 -1.237292 -15.388795 -10.278718 0.000000 0.000000 0.000000 -6.488309 0.299976 0.561598 2.745492 6.776767 -1.513625 15.550063 7.935561 76.151760 0.061887 33.462333 10.196898 0.000000 0.000000 0.000000 
83.275299 97.561111 162.906921 0.000000 0.000000 0.000000 4.129965 43.752720 -0.772542 -23.530782 -3.614246 -7.049727 20.784839 3.778545 -7.955733 32.764749 16.633594 6.058011 0.000000 0.000000 0.000000 4.073975 44.455478 0.222209 -31.300527 3.404707 3.901269 40.878184 -1.677102 -10.654277 49.483734 -9.447269 -3.546706 0.000000 0.000000 0.000000 4.225986 45.827957 -0.194775 -0.763507 -0.139442 0.043932 3.955032 -3.248242 0.342834 -3.391206 1.957476 -0.603869 0.000000 0.000000 0.000000 -7.121501 0.435997 1.750125 -0.864436 0.934505 0.932483 0.000000 0.000000 0.000000 -5.500775 0.495010 3.245349 -0.634688 1.217138 0.096431 13.031505 -23.278231 -62.306283 -0.911246 -15.240693 -10.502658 0.000000 0.000000 0.000000 -6.509289 -0.059125 1.009810 2.623751 6.008758 -1.141147 16.285498 7.060796 75.111980 0.329370 32.944062 10.041482 0.000000 0.000000 0.000000 
86.595665 97.838371 165.650024 0.000000 0.000000 0.000000 5.776087 45.632057 -3.484591 -21.074637 -4.639054 -6.899385 19.663426 1.656507 -5.692789 28.122307 16.203982 10.318649 0.000000 0.000000 0.000000 5.581556 46.288810 -2.794163 -35.985787 2.076194 5.622142 36.942270 0.591454 -9.909851 50.569433 -7.958341 -5.667105 0.000000 0.000000 0.000000 6.138151 47.625625 -3.544843 -0.727134 -0.062002 -0.048016 3.404136 -3.753556 1.695162 -3.430102 1.745003 0.052805 0.000000 0.000000 0.000000 -6.868077 0.214285 2.087092 -0.549732 0.666637 1.040317 0.000000 0.000000 0.000000 -5.377509 0.292052 3.802102 -0.677617 -0.252862 0.252999 10.764705 -23.966784 -63.796351 -0.439709 -14.794425 -10.559997 0.000000 0.000000 0.000000 -6.401568 -0.267490 1.494424 2.361823 5.334973 -0.608499 17.291930 5.859475 74.091734 0.783407 32.409302 9.753813 0.000000 0.000000 0.000000 
89.956436 97.462463 168.008911 0.000000 0.000000 0.000000 7.255176 48.367138 -5.252563 -20.128957 -3.316477 -5.292037 21.078066 -1.626335 -5.582266 23.562452 12.744434 11.585398 0.000000 0.000000 0.000000 6.998642 48.881386 -4.869647 -38.561711 -0.157085 5.272232 30.751687 2.982444 -8.256251 50.924822 -5.888406 -7.113314 0.000000 0.000000 0.000000 8.026945 49.525251 -5.771547 -0.722235 0.022592 -0.104385 2.690602 -4.029732 1.619684 -3.493331 1.692538 0.671559 0.000000 0.000000 0.000000 -6.616788 0.135378 2.345850 -0.272505 0.395271 1.114107 0.000000 0.000000 0.000000 -5.330713 0.200220 4.326693 -0.788776 -1.798524 0.795040 8.488588 -24.387354 -65.400701 0.104901 -14.352263 -10.499427 0.000000 0.000000 0.000000 -6.046262 -0.294995 1.938088 1.984716 4.694077 0.091942 18.480255 4.587927 73.291044 1.313663 31.866466 9.389211 0.000000 0.000000 0.000000 
93.238838 96.624619 170.289246 0.000000 0.000000 0.000000 8.156047 51.385333 -5.535077 -19.837484 -0.060006 -2.705006 24.047245 -5.365614 -6.887945 21.103457 8.327760 10.326516 0.000000 0.000000 0.000000 7.784665 51.672956 -5.056297 -38.511670 -2.515964 3.458226 22.464212 4.665191 -6.291875 48.536929 -4.572760 -8.451130 0.000000 0.000000 0.000000 9.062259 51.581093 -5.878895 -0.728605 0.039136 -0.078468 1.868403 -4.157041 -0.296870 -3.569671 1.698978 1.138582 0.000000 0.000000 0.000000 -6.447664 0.138017 2.499277 -0.054368 0.131914 1.157713 0.000000 0.000000 0.000000 -5.246199 0.175776 4.724379 -0.884892 -3.316072 1.640092 6.278131 -24.548024 -66.894709 0.672614 -14.062836 -10.360178 0.000000 0.000000 0.000000 -5.469504 -0.206783 2.251592 1.532070 4.074492 0.821352 19.535905 3.575810 72.957875 1.850438 31.042527 8.983301 0.000000 0.000000 0.000000 
96.537193 95.556793 172.633698 0.000000 0.000000 0.000000 8.338237 54.051371 -4.348953 -18.250909 3.914258 -0.456817 26.017289 -8.890725 -8.390225 19.797582 4.511628 8.268824 0.000000 0.000000 0.000000 7.899566 53.988076 -3.635249 -36.986854 -4.402479 0.592723 13.543663 5.785770 -4.407124 44.446848 -3.502551 -8.994743 0.000000 0.000000 0.000000 9.049916 53.491019 -4.192506 -0.759057 0.008401 0.049879 1.180561 -4.163102 -3.302529 -3.561768 1.666926 1.406520 0.000000 0.000000 0.000000 -6.379664 0.140668 2.576917 0.104636 -0.106486 1.193571 0.000000 0.000000 0.000000 -5.045930 0.162016 4.903728 -0.900436 -4.636444 2.639150 4.223229 -24.465806 -67.981146 1.208559 -13.809475 -10.179150 0.000000 0.000000 0.000000 -4.775132 -0.111023 2.417631 1.090367 3.464508 1.426739 20.170641 3.035640 73.151025 2.339350 29.706422 8.543440 0.000000 0.000000 0.000000 
99.876022 94.569817 175.297546 0.000000 0.000000 0.000000 8.304014 55.730044 -2.682639 -13.557131 6.649849 0.202068 24.539572 -11.883345 -9.356709 16.362890 1.274547 6.569950 0.000000 0.000000 0.000000 7.780741 55.729341 -1.808841 -36.052266 -5.076332 -2.700073 6.847476 7.330533 -2.986995 43.292010 -1.756656 -8.069306 0.000000 0.000000 0.000000 8.376546 55.061095 -1.961897 -0.814079 -0.042284 0.205651 0.737007 -4.124227 -5.933565 -3.383219 1.546829 1.516269 0.000000 0.000000 0.000000 -6.339381 0.093411 2.572695 0.202385 -0.313593 1.232544 0.000000 0.000000 0.000000 -4.809270 0.126014 4.820780 -0.810058 -5.586947 3.476959 2.440294 -24.206959 -68.560332 1.639040 -13.532438 -10.021010 0.000000 0.000000 0.000000 -3.954534 -0.079895 2.470629 0.692817 2.873338 1.694643 20.202670 3.127244 73.744965 2.722075 27.717446 8.123980 0.000000 0.000000 0.000000 
103.117035 93.725739 178.400604 0.000000 0.000000 0.000000 8.713010 56.662027 -1.962788 -6.908875 7.458721 -0.346521 20.755524 -13.966425 -9.769965 10.864282 -0.602124 6.129087 0.000000 0.000000 0.000000 7.922143 57.031752 -0.959667 -36.432383 -4.589314 -4.747431 4.466868 9.472445 -1.647992 46.282147 0.722396 -6.272065 0.000000 0.000000 0.000000 7.747889 56.509242 -0.803866 -0.841690 -0.043025 0.271271 0.427737 -4.160510 -7.052183 -3.146271 1.342815 1.536999 0.000000 0.000000 0.000000 -6.270019 -0.004387 2.478527 0.283041 -0.490728 1.268916 0.000000 0.000000 0.000000 -4.595416 0.062718 4.502389 -0.612139 -6.112555 3.994184 1.119878 -23.847230 -68.679588 1.960196 -13.088957 -9.943067 0.000000 0.000000 0.000000 -3.153584 -0.143864 2.434365 0.316685 2.384239 1.605350 19.598348 3.768353 74.668270 2.979168 25.078289 7.761832 0.000000 0.000000 0.000000 
106.366234 92.845734 181.627380 0.000000 0.000000 0.000000 9.545041 57.402187 -2.842208 -1.697076 7.284264 -0.701910 19.285891 -14.873751 -9.381388 4.305415 -0.082201 8.559306 0.000000 0.000000 0.000000 8.610730 58.176847 -2.116251 -38.510833 -4.372556 -5.410411 7.317601 11.101452 -0.177654 50.146713 2.499964 -4.960093 0.000000 0.000000 0.000000 7.963699 57.888005 -1.833302 -0.861050 0.026764 0.221304 0.250915 -4.268867 -6.278511 -2.931368 1.116122 1.502074 0.000000 0.000000 0.000000 -6.182071 -0.112278 2.336029 0.368877 -0.625448 1.290700 0.000000 0.000000 0.000000 -4.482540 -0.030067 4.051989 -0.285832 -6.260066 4.241534 0.456088 -23.519984 -68.514379 2.183239 -12.429712 -10.023782 0.000000 0.000000 0.000000 -2.461324 -0.269784 2.329775 -0.035949 2.153246 1.432367 18.640126 4.707821 75.767835 3.064987 22.237438 7.498751 0.000000 0.000000 0.000000 
109.638123 91.872688 184.707855 0.000000 0.000000 0.000000 10.370397 58.290965 -5.099648 0.234580 6.759681 0.142640 22.655107 -14.939734 -8.160410 -2.710342 1.538382 13.394757 0.000000 0.000000 0.000000 9.337115 59.513597 -4.648214 -41.159710 -5.010563 -4.607310 13.736435 11.681961 0.840741 52.041575 2.231420 -5.026224 0.000000 0.000000 0.000000 8.727010 59.243258 -4.422515 -0.855738 0.097391 0.071160 0.182263 -4.448581 -4.217003 -2.793462 0.930589 1.433271 0.000000 0.000000 0.000000 -6.031900 -0.179299 2.174900 0.476302 -0.714880 1.279145 0.000000 0.000000 0.000000 -4.564288 -0.120579 3.584595 0.141546 -6.050762 4.252046 0.525901 -23.247452 -68.321289 2.340282 -11.474282 -10.288970 0.000000 0.000000 0.000000 -1.901546 -0.394014 2.165212 -0.328582 2.291025 1.361889 17.725907 5.679723 76.819438 2.950076 19.735043 7.415641 0.000000 0.000000 0.000000 
